<?xml version="1.0" standalone="no"?><!DOCTYPE svg PUBLIC "-//W3C//DTD SVG 1.1//EN" "http://www.w3.org/Graphics/SVG/1.1/DTD/svg11.dtd"><svg t="1571407463553" class="icon" viewBox="0 0 1025 1024" version="1.1" xmlns="http://www.w3.org/2000/svg" p-id="2887" xmlns:xlink="http://www.w3.org/1999/xlink" width="200.1953125" height="200"><defs><style type="text/css"></style></defs><path d="M512.007376 336.757866c-135.405324 0-245.718105 107.760747-247.230149 240.798433l494.452922 0C757.732857 444.525988 647.4127 336.757866 512.007376 336.757866zM448.826092 438.153279C379.37536 450.677423 350.314625 516.159963 350.034344 516.823787c-2.035727 4.71315-6.623487 7.523338-11.439899 7.523338-1.652184 0-3.326495-0.331912-4.9418-1.025239-6.313703-2.73643-9.219776-10.067996-6.490723-16.39645 0.346664-0.803965 8.791979-20.084361 27.283162-41.083324 24.642618-27.983865 55.753832-46.054627 89.955515-52.213438 6.771004-1.224386 13.254351 3.274865 14.471361 10.045868S455.597096 436.928892 448.826092 438.153279z" p-id="2888" fill="#1296db"></path><path d="M561.757289 316.304714c-3.842803-23.993546-24.679498-42.388844-49.749914-42.388844-25.055664 0-45.907111 18.395298-49.742538 42.388844 16.241558-2.935577 32.874035-4.462372 49.742538-4.462372S545.508355 313.361761 561.757289 316.304714z" p-id="2889" fill="#1296db"></path><path d="M512.014752 0C229.233145 0 0 229.233145 0 512.007376c0 282.759479 229.233145 511.985248 512.014752 511.985248 282.766855 0 512-229.225769 512-511.985248C1024.007376 229.233145 794.781607 0 512.014752 0zM801.250202 716.000461l-578.485652 0c-6.881641 0-12.457762-5.576121-12.457762-12.457762s5.583497-12.457762 12.457762-12.457762l578.485652 0c6.889017 0 12.457762 5.576121 12.457762 12.457762S808.139219 716.000461 801.250202 716.000461zM801.250202 602.464446l-578.485652 0c-6.881641 0-12.457762-5.576121-12.457762-12.457762 0-6.874265 5.583497-12.450386 12.457762-12.450386l17.089778 0c0.715455-70.719373 28.957474-137.079636 79.754754-187.154086 33.132189-32.65276 73.30091-55.834966 117.120664-68.204218 1.113749-40.55964 34.452461-73.212401 75.277631-73.212401 40.817794 0 74.163882 32.65276 75.277631 73.212401 43.819753 12.369252 84.003227 35.551458 117.120664 68.204218 50.79728 50.067074 79.046675 116.434712 79.754754 187.154086l17.097153 0c6.889017 0 12.457762 5.576121 12.457762 12.450386C813.715339 596.888325 808.139219 602.464446 801.250202 602.464446z" p-id="2890" fill="#1296db"></path></svg>