<?xml version="1.0" standalone="no"?><!DOCTYPE svg PUBLIC "-//W3C//DTD SVG 1.1//EN" "http://www.w3.org/Graphics/SVG/1.1/DTD/svg11.dtd"><svg t="1571411466385" class="icon" viewBox="0 0 1024 1024" version="1.1" xmlns="http://www.w3.org/2000/svg" p-id="4236" xmlns:xlink="http://www.w3.org/1999/xlink" width="200" height="200"><defs><style type="text/css"></style></defs><path d="M500.777913 467.73996c-10.756995 0-21.515013-4.105504-29.727045-12.310374L355.841939 340.232938c-16.424064-16.423041-16.424064-43.043329 0-59.46023 16.395412-16.423041 43.029002-16.415878 59.453067-0.00614l115.208928 115.196649c16.424064 16.423041 16.424064 43.042305 0 59.458183C522.306228 463.633433 511.535931 467.73996 500.777913 467.73996z" p-id="4237" fill="#1afa29"></path><path d="M525.741467 467.73996c-10.756995 0-21.51399-4.105504-29.724998-12.310374-16.424064-16.415878-16.424064-43.036165 0-59.46023l115.182322-115.208928c16.395412-16.424064 43.029002-16.415878 59.453067-0.007163 16.423041 16.415878 16.423041 43.036165 0 59.459207l-115.183346 115.208928C547.270806 463.633433 536.498462 467.73996 525.741467 467.73996z" p-id="4238" fill="#1afa29"></path><path d="M663.451876 522.252505 363.067504 522.252505c-23.224957 0-42.043558-18.825764-42.043558-42.044582 0-23.217794 18.818601-42.043558 42.043558-42.043558l300.383348 0c23.225981 0 42.044582 18.825764 42.044582 42.043558C705.496457 503.426741 686.677856 522.252505 663.451876 522.252505z" p-id="4239" fill="#1afa29"></path><path d="M663.451876 662.398382 363.067504 662.398382c-23.224957 0-42.043558-18.825764-42.043558-42.043558 0-23.218818 18.818601-42.043558 42.043558-42.043558l300.383348 0c23.225981 0 42.044582 18.824741 42.044582 42.043558C705.496457 643.571594 686.677856 662.398382 663.451876 662.398382z" p-id="4240" fill="#1afa29"></path><path d="M513.259178 779.141246c-23.224957 0-42.043558-18.824741-42.043558-42.044582L471.21562 484.161978c0-23.217794 18.818601-42.043558 42.043558-42.043558s42.044582 18.825764 42.044582 42.043558l0 252.933663C555.30376 760.315482 536.485159 779.141246 513.259178 779.141246z" p-id="4241" fill="#1afa29"></path><path d="M513.136382 958.49817c-60.95835 0.007163-121.807207-12.585643-179.343621-37.712927C107.163183 821.807998 3.305791 556.925189 102.27792 330.309938c47.922453-109.776196 135.739521-194.322777 247.267617-238.050698 111.515816-43.7402 233.390561-41.407062 343.153454 6.528694 21.282722 9.293667 31.000038 34.07098 21.706371 55.353702-9.278317 21.268396-34.037211 31.025621-55.346539 21.699208-89.192392-38.957267-188.225919-40.818661-278.8141-5.302773C289.627888 206.074426 218.281957 274.764877 179.337993 363.957269c-80.413448 184.127578 3.968381 399.349337 188.109262 479.768925 89.151459 38.936801 188.212616 40.819684 278.815123 5.303796 90.602507-35.529191 161.948439-104.220666 200.898543-193.420221 56.673767-129.73783 32.546254-282.017048-61.492516-387.955846-15.410991-17.367553-13.821797-43.945885 3.545756-59.356876 17.380856-15.402805 43.932582-13.82282 59.356876 3.53143 115.703185 130.374326 145.402601 317.77239 75.643817 477.435787-47.928592 109.771079-135.739521 194.316637-247.254314 238.043534C623.898021 948.118775 568.468594 958.49817 513.136382 958.49817z" p-id="4242" fill="#1afa29"></path></svg>