<?xml version="1.0" standalone="no"?><!DOCTYPE svg PUBLIC "-//W3C//DTD SVG 1.1//EN" "http://www.w3.org/Graphics/SVG/1.1/DTD/svg11.dtd"><svg t="1571411428484" class="icon" viewBox="0 0 1024 1024" version="1.1" xmlns="http://www.w3.org/2000/svg" p-id="3406" xmlns:xlink="http://www.w3.org/1999/xlink" width="200" height="200"><defs><style type="text/css"></style></defs><path d="M654.933333 917.333333H196.266667C170.666667 917.333333 149.333333 896 149.333333 870.4V153.6C149.333333 128 170.666667 106.666667 196.266667 106.666667h631.466666C853.333333 106.666667 874.666667 128 874.666667 153.6v544L654.933333 917.333333zM196.266667 149.333333c-2.133333 0-4.266667 2.133333-4.266667 4.266667v716.8c0 2.133333 2.133333 4.266667 4.266667 4.266667h441.6l194.133333-194.133334V153.6c0-2.133333-2.133333-4.266667-4.266667-4.266667H196.266667z" fill="#1296db" p-id="3407"></path><path d="M300.8 426.666667c-6.4 0-10.666667-2.133333-14.933333-6.4l-44.8-44.8c-8.533333-8.533333-8.533333-21.333333 0-29.866667 8.533333-8.533333 21.333333-8.533333 29.866666 0l44.8 44.8c8.533333 8.533333 8.533333 21.333333 0 29.866667-4.266667 4.266667-10.666667 6.4-14.933333 6.4z" fill="#1296db" p-id="3408"></path><path d="M300.8 426.666667c-6.4 0-10.666667-2.133333-14.933333-6.4-8.533333-8.533333-8.533333-21.333333 0-29.866667l104.533333-104.533333c8.533333-8.533333 21.333333-8.533333 29.866667 0s8.533333 21.333333 0 29.866666l-104.533334 104.533334c-4.266667 4.266667-10.666667 6.4-14.933333 6.4zM300.8 663.466667c-6.4 0-10.666667-2.133333-14.933333-6.4l-44.8-44.8c-8.533333-8.533333-8.533333-21.333333 0-29.866667s21.333333-8.533333 29.866666 0l44.8 44.8c8.533333 8.533333 8.533333 21.333333 0 29.866667-4.266667 4.266667-10.666667 6.4-14.933333 6.4z" fill="#1296db" p-id="3409"></path><path d="M300.8 663.466667c-6.4 0-10.666667-2.133333-14.933333-6.4-8.533333-8.533333-8.533333-21.333333 0-29.866667l104.533333-106.666667c8.533333-8.533333 21.333333-8.533333 29.866667 0 8.533333 8.533333 8.533333 21.333333 0 29.866667l-104.533334 106.666667c-4.266667 4.266667-10.666667 6.4-14.933333 6.4zM746.666667 384H469.333333c-12.8 0-21.333333-8.533333-21.333333-21.333333s8.533333-21.333333 21.333333-21.333334h277.333334c12.8 0 21.333333 8.533333 21.333333 21.333334s-8.533333 21.333333-21.333333 21.333333zM746.666667 620.8H469.333333c-12.8 0-21.333333-8.533333-21.333333-21.333333s8.533333-21.333333 21.333333-21.333334h277.333334c12.8 0 21.333333 8.533333 21.333333 21.333334s-8.533333 21.333333-21.333333 21.333333zM667.733333 896h-42.666666v-172.8c0-29.866667 23.466667-53.333333 53.333333-53.333333H853.333333v42.666666h-172.8c-6.4 0-10.666667 4.266667-10.666666 10.666667V896z" fill="#1296db" p-id="3410"></path></svg>