<?xml version="1.0" standalone="no"?><!DOCTYPE svg PUBLIC "-//W3C//DTD SVG 1.1//EN" "http://www.w3.org/Graphics/SVG/1.1/DTD/svg11.dtd"><svg t="1571411399170" class="icon" viewBox="0 0 1024 1024" version="1.1" xmlns="http://www.w3.org/2000/svg" p-id="2545" xmlns:xlink="http://www.w3.org/1999/xlink" width="200" height="200"><defs><style type="text/css"></style></defs><path d="M341.333333 273.066667H238.933333v512h546.133334V273.066667h-102.4v68.266666H341.333333V273.066667z m341.333334-68.266667h136.533333a34.133333 34.133333 0 0 1 34.133333 34.133333v580.266667a34.133333 34.133333 0 0 1-34.133333 34.133333H204.8a34.133333 34.133333 0 0 1-34.133333-34.133333V238.933333a34.133333 34.133333 0 0 1 34.133333-34.133333h136.533333V170.666667a34.133333 34.133333 0 0 1 34.133334-34.133334h273.066666a34.133333 34.133333 0 0 1 34.133334 34.133334v34.133333z m-273.066667 0v68.266667h204.8V204.8h-204.8z m-68.266667 238.933333h341.333334v68.266667H341.333333v-68.266667z m0 136.533334h170.666667v68.266666h-170.666667v-68.266666z" p-id="2546" fill="#1296db"></path></svg>